<svg xmlns="http://www.w3.org/2000/svg" width="45.845" height="41.505" viewBox="0 0 45.845 41.505">
  <g id="tick" transform="translate(-2.814 0.002)">
    <path id="Path_9" data-name="Path 9" d="M14.226,23.892c.123-.108,1.4.554,1.534.612a30.2,30.2,0,0,1,3.763,1.981,22.889,22.889,0,0,1,7.638,7.678c1.542,2.568,2.71,7.34,6.437,7.34,1.786,0,3.815.058,5.172-1.3,1.659-1.667,1.689-4.1,2.2-6.252A67.905,67.905,0,0,1,55.149,6.408q.625-.747,1.269-1.479a35.881,35.881,0,0,1,2.769-2.788c.132-.12.361-.365.634-.646A.881.881,0,0,0,59.176,0C53.57.176,40.23,3.111,32.718,25.653c0,0-11.447-7.925-18.491-1.761Zm0,0" transform="translate(-11.413 0)" fill="#4fba6f"/>
    <g id="Group_24" data-name="Group 24" transform="translate(27.469 3.638)">
      <path id="Path_10" data-name="Path 10" d="M293.576,49.454a.869.869,0,0,1-.426-.111.881.881,0,0,1-.343-1.2c4.483-8.07,9.838-10.815,10.061-10.928a.881.881,0,0,1,.793,1.575c-.067.034-5.119,2.662-9.312,10.207a.881.881,0,0,1-.773.453Zm0,0" transform="translate(-290.054 -37.124)" fill="#71c285"/>
      <path id="Path_11" data-name="Path 11" d="M266.621,175.4a.88.88,0,0,1-.787-1.274l.881-1.761a.881.881,0,0,1,1.575.788l-.881,1.761A.88.88,0,0,1,266.621,175.4Zm0,0" transform="translate(-265.741 -158.673)" fill="#71c285"/>
    </g>
  </g>
</svg>
